<?xml version="1.0" encoding="utf-8"?>
<!-- Generator: Adobe Illustrator 15.0.0, SVG Export Plug-In  -->
<!DOCTYPE svg PUBLIC "-//W3C//DTD SVG 1.1//EN" "http://www.w3.org/Graphics/SVG/1.1/DTD/svg11.dtd" [
	<!ENTITY ns_flows "http://ns.adobe.com/Flows/1.0/">
]>
<svg version="1.1"
	 xmlns="http://www.w3.org/2000/svg" xmlns:xlink="http://www.w3.org/1999/xlink" xmlns:a="http://ns.adobe.com/AdobeSVGViewerExtensions/3.0/"
	 x="0px" y="0px" width="589px" height="132px" viewBox="0 0 589 132" enable-background="new 0 0 589 132" xml:space="preserve">
<defs>
</defs>
<path fill="#FFFFFF" d="M104.596,111.775c0.542,1.26,0.723,2.7,0.723,3.96c0,5.399-4.155,10.439-10.478,10.439
	c-4.155,0-8.129-2.52-9.755-6.66l-7.949-19.619H28.181l-7.949,19.619c-1.625,4.141-5.6,6.66-9.755,6.66
	C4.335,126.175,0,120.955,0,115.735c0-1.44,0.181-2.7,0.723-3.96L42.813,6.84c1.626-3.96,5.6-6.66,9.936-6.66
	c4.155,0,8.129,2.7,9.755,6.66L104.596,111.775z M68.646,79.017L52.75,38.878L36.671,79.017H68.646z"/>
<path fill="#FFFFFF" d="M220.934,84.236v1.8c0,10.439-4.155,20.339-11.381,27.539c-7.948,7.92-18.788,12.239-30.71,12.239h-1.445
	c-15.355-0.54-28.724-9.18-35.046-22.679c-0.723-1.44-0.903-3.061-0.903-4.5c0-3.96,2.167-7.739,6.142-9.54
	c1.445-0.72,2.89-0.899,4.335-0.899c3.974,0,7.949,2.16,9.755,6.119c2.891,6.3,9.033,10.26,16.439,10.44h0.903
	c6.323,0,11.562-1.98,15.355-5.76c3.613-3.601,5.6-8.1,5.6-12.96v-0.72c-0.542-8.28-16.259-15.659-23.123-17.64l-0.723-0.359
	c-18.607-6.66-28-18.359-28-34.559v-1.44c0.361-9.18,4.516-17.459,12.284-23.219c6.503-5.04,15.355-8.1,24.749-8.1h1.626
	c7.587,0.18,15.355,3.239,21.678,7.919c2.71,2.16,4.155,5.221,4.155,8.28c0,2.16-0.723,4.5-2.168,6.3
	c-2.168,2.699-5.239,4.14-8.49,4.14c-2.168,0-4.336-0.54-6.323-1.979c-2.709-2.16-6.323-3.42-9.574-3.601h-1.084
	c-8.852,0-15.716,4.5-15.897,10.979v0.721c0,8.819,6.865,12.06,13.91,14.939C188.417,49.317,219.85,59.397,220.934,84.236z"/>
<path fill="#FFFFFF" d="M341.968,84.236v1.8c0,10.439-4.156,20.339-11.383,27.539c-7.947,7.92-18.787,12.239-30.709,12.239h-1.445
	c-15.355-0.54-28.723-9.18-35.046-22.679c-0.723-1.44-0.903-3.061-0.903-4.5c0-3.96,2.168-7.739,6.143-9.54
	c1.445-0.72,2.891-0.899,4.335-0.899c3.975,0,7.949,2.16,9.756,6.119c2.89,6.3,9.033,10.26,16.439,10.44h0.902
	c6.324,0,11.563-1.98,15.355-5.76c3.613-3.601,5.6-8.1,5.6-12.96v-0.72c-0.541-8.28-16.258-15.659-23.123-17.64l-0.723-0.359
	c-18.606-6.66-28-18.359-28-34.559v-1.44c0.361-9.18,4.516-17.459,12.284-23.219c6.502-5.04,15.354-8.1,24.749-8.1h1.625
	c7.588,0.18,15.355,3.239,21.68,7.919c2.709,2.16,4.154,5.221,4.154,8.28c0,2.16-0.723,4.5-2.168,6.3
	c-2.168,2.699-5.238,4.14-8.49,4.14c-2.168,0-4.336-0.54-6.322-1.979c-2.711-2.16-6.324-3.42-9.574-3.601h-1.084
	c-8.854,0-15.717,4.5-15.898,10.979v0.721c0,8.819,6.865,12.06,13.91,14.939C309.451,49.317,340.884,59.397,341.968,84.236z"/>
<path fill="#FFFFFF" d="M462.64,115.735c0,5.76-4.697,10.439-10.66,10.439h-57.807c-5.961,0-10.658-4.68-10.658-10.439V10.619
	c0-5.76,4.697-10.439,10.658-10.439h57.807c5.963,0,10.66,4.68,10.66,10.439c0,5.939-4.697,10.62-10.66,10.62h-47.328v31.498h36.852
	c5.781,0,10.477,4.68,10.477,10.439s-4.695,10.44-10.477,10.44h-36.852v31.498h47.328
	C457.943,105.115,462.64,109.795,462.64,115.735z"/>
<path fill="#FFFFFF" d="M577.892,0.18c5.781,0,10.658,4.68,10.658,10.439c0,5.939-4.877,10.62-10.658,10.62h-20.955v94.496
	c0,5.76-4.879,10.439-10.658,10.439c-5.781,0-10.479-4.68-10.479-10.439V21.239h-21.137c-5.779,0-10.477-4.681-10.477-10.62
	c0-5.76,4.697-10.439,10.477-10.439H577.892z"/>
</svg>
